<svg width="100%" height="100%" id="svg" viewBox="0 0 1440 590" xmlns="http://www.w3.org/2000/svg" class="transition duration-300 ease-in-out delay-150"><defs><linearGradient id="gradient" x1="50%" y1="100%" x2="50%" y2="0%"><stop offset="5%" stop-color="#31363f"></stop><stop offset="95%" stop-color="#eeeeee"></stop></linearGradient></defs><path d="M 0,600 L 0,90 C 51.40243004418264,100.4029823269514 102.80486008836527,110.8059646539028 158,107 C 213.19513991163473,103.1940353460972 272.18298969072157,85.1791237113402 342,80 C 411.81701030927843,74.8208762886598 492.4631811487483,82.47754050073638 559,81 C 625.5368188512517,79.52245949926362 677.9642857142857,68.91071428571428 729,80 C 780.0357142857143,91.08928571428572 829.6796759941092,123.87960235640651 896,131 C 962.3203240058908,138.1203976435935 1045.3170103092782,119.57087628865979 1106,112 C 1166.6829896907218,104.42912371134021 1205.0522827687778,107.83689248895433 1257,106 C 1308.9477172312222,104.16310751104567 1374.473858615611,97.08155375552283 1440,90 L 1440,600 L 0,600 Z" stroke="none" stroke-width="0" fill="url(#gradient)" fill-opacity="0.265" class="transition-all duration-300 ease-in-out delay-150 path-0"></path><defs><linearGradient id="gradient" x1="50%" y1="100%" x2="50%" y2="0%"><stop offset="5%" stop-color="#31363f"></stop><stop offset="95%" stop-color="#eeeeee"></stop></linearGradient></defs><path d="M 0,600 L 0,210 C 57.29270986745213,209.7198085419735 114.58541973490426,209.43961708394698 181,213 C 247.41458026509574,216.56038291605302 322.951030927835,223.96134020618558 392,226 C 461.048969072165,228.03865979381442 523.6104565537555,224.71502209131071 568,210 C 612.3895434462445,195.28497790868929 638.6071428571429,169.17857142857144 689,168 C 739.3928571428571,166.82142857142856 813.9609720176732,190.5706921944035 881,204 C 948.0390279823268,217.4293078055965 1007.5489690721649,220.53865979381447 1073,227 C 1138.451030927835,233.46134020618553 1209.8431516936673,243.27466863033874 1272,241 C 1334.1568483063327,238.72533136966126 1387.0784241531665,224.36266568483063 1440,210 L 1440,600 L 0,600 Z" stroke="none" stroke-width="0" fill="url(#gradient)" fill-opacity="0.4" class="transition-all duration-300 ease-in-out delay-150 path-1"></path><defs><linearGradient id="gradient" x1="50%" y1="100%" x2="50%" y2="0%"><stop offset="5%" stop-color="#31363f"></stop><stop offset="95%" stop-color="#eeeeee"></stop></linearGradient></defs><path d="M 0,600 L 0,330 C 61.507916053019144,345.25202503681885 123.01583210603829,360.5040500736377 188,356 C 252.9841678939617,351.4959499263623 321.444587628866,327.23582474226805 379,319 C 436.555412371134,310.76417525773195 483.20581737849784,318.55265095729015 540,323 C 596.7941826215022,327.44734904270985 663.7321428571429,328.55357142857144 718,335 C 772.2678571428571,341.44642857142856 813.8656111929308,353.2330633284242 866,342 C 918.1343888070692,330.7669366715758 980.8054123711338,296.51417525773195 1054,290 C 1127.1945876288662,283.48582474226805 1210.9127393225333,304.710235640648 1277,316 C 1343.0872606774667,327.289764359352 1391.5436303387332,328.64488217967596 1440,330 L 1440,600 L 0,600 Z" stroke="none" stroke-width="0" fill="url(#gradient)" fill-opacity="0.53" class="transition-all duration-300 ease-in-out delay-150 path-2"></path><defs><linearGradient id="gradient" x1="50%" y1="100%" x2="50%" y2="0%"><stop offset="5%" stop-color="#31363f"></stop><stop offset="95%" stop-color="#eeeeee"></stop></linearGradient></defs><path d="M 0,600 L 0,450 C 58.86119293078056,457.1999263622975 117.72238586156112,464.399852724595 182,458 C 246.27761413843888,451.600147275405 315.9716494845361,431.60051546391753 370,433 C 424.0283505154639,434.39948453608247 462.39101620029464,457.19808541973487 517,453 C 571.6089837997054,448.80191458026513 642.4642857142858,417.6071428571429 699,429 C 755.5357142857142,440.3928571428571 797.7518409425627,494.37334315169363 870,487 C 942.2481590574373,479.62665684830637 1044.528350515464,410.89948453608247 1106,410 C 1167.471649484536,409.10051546391753 1188.1347569955817,476.02871870397644 1237,494 C 1285.8652430044183,511.97128129602356 1362.9326215022093,480.9856406480118 1440,450 L 1440,600 L 0,600 Z" stroke="none" stroke-width="0" fill="url(#gradient)" fill-opacity="1" class="transition-all duration-300 ease-in-out delay-150 path-3"></path></svg>